<svg width="32" height="32" xmlns="http://www.w3.org/2000/svg"><g fill="none" fill-rule="evenodd"><path fill="#FFF" d="M0 0h32v32H0z"/><path fill="#1A73E9" d="M23.746 20.733l1.524-2.707h5.554L32 15.933l-3.53-6.277H22.7l-1.6-2.83h-1.634v-1.97h2.741l1.599 2.83h3.556l-3.46-6.153h-6.835V9.78h2.75l1.119 1.97h-3.87v4.06h3.646l1.662-2.953h4.404l1.109 1.97h-4.405l-1.663 2.953h-4.752v7.631h5.924l-1.107 1.969h-4.817v2.954H23.9l5.815-10.338h-3.34l-1.523 2.708h-5.387v-1.97zm-15.197.178l-1.578-2.808H1.218L0 15.933l3.657-6.51h5.975l1.657-2.934h1.692V4.446h-2.839L8.487 7.381H4.804L8.388 1h7.079v8.552h-2.848l-1.16 2.041h4.008v4.212H11.69l-1.72-3.063H5.408L4.26 14.785h4.562l1.723 3.063h4.922v7.913H9.33l1.148 2.042h4.989v3.064H8.388L2.366 20.146h3.458l1.578 2.807h5.58v-2.042z"/></g></svg>